<?xml version="1.0" standalone="no"?>
<!DOCTYPE svg PUBLIC "-//W3C//DTD SVG 20010904//EN"
 "http://www.w3.org/TR/2001/REC-SVG-20010904/DTD/svg10.dtd">
<svg version="1.0" xmlns="http://www.w3.org/2000/svg"
 width="520.000000pt" height="520.000000pt" viewBox="0 0 520.000000 520.000000"
 preserveAspectRatio="xMidYMid meet">
<metadata>
Created by potrace 1.11, written by Peter Selinger 2001-2013
</metadata>
<g transform="translate(0.000000,520.000000) scale(0.100000,-0.100000)"
fill="#000000" stroke="none">
<path d="M2408 5135 c-1 -1 -41 -6 -88 -9 -137 -11 -370 -62 -533 -117 -134
-45 -314 -120 -357 -149 -8 -6 -26 -16 -40 -22 -93 -46 -321 -199 -405 -273
-22 -19 -68 -58 -102 -87 -34 -29 -62 -56 -62 -59 -1 -3 -29 -34 -64 -70 -34
-35 -78 -84 -97 -108 -19 -24 -40 -48 -45 -55 -20 -21 -110 -150 -158 -226
-55 -86 -143 -258 -178 -345 -13 -33 -28 -63 -32 -66 -5 -3 -8 -9 -8 -13 1 -3
-16 -62 -38 -130 -38 -120 -77 -281 -87 -361 -3 -22 -7 -46 -9 -53 -18 -55
-27 -495 -12 -612 12 -89 19 -144 23 -165 3 -11 7 -36 10 -55 3 -19 8 -44 11
-55 4 -11 8 -26 9 -34 8 -42 29 -120 41 -148 7 -18 14 -36 14 -40 13 -81 145
-382 225 -509 24 -40 44 -76 44 -82 0 -6 4 -12 8 -14 4 -1 29 -33 55 -71 26
-37 51 -73 56 -80 113 -141 311 -348 390 -407 19 -14 39 -29 45 -35 118 -108
419 -282 638 -369 101 -40 143 -54 238 -80 99 -27 141 -37 170 -42 19 -3 38
-8 41 -9 3 -2 27 -7 54 -11 27 -3 61 -8 75 -10 181 -27 517 -26 685 1 17 2 50
7 73 10 24 3 47 7 50 9 4 2 23 7 42 10 19 3 69 15 110 26 41 11 84 23 94 25
129 30 474 183 578 256 14 11 31 19 37 19 6 0 11 5 11 10 0 6 5 10 11 10 6 0
27 12 47 27 119 86 152 112 202 153 55 45 248 235 305 300 49 56 175 228 175
239 0 5 4 11 8 13 10 4 72 105 72 117 0 5 4 11 8 13 8 3 94 174 141 281 31 69
110 305 104 311 -2 2 0 13 5 23 6 10 12 32 15 48 3 17 8 41 12 55 3 14 7 36
10 50 3 14 7 34 9 45 2 11 7 45 11 75 4 30 9 64 12 75 3 11 6 117 8 235 3 242
-12 389 -61 609 -14 62 -67 242 -84 286 -7 17 -14 35 -25 65 -21 55 -38 92
-92 202 -36 72 -69 136 -74 142 -5 6 -37 54 -70 106 -148 228 -337 432 -581
625 -36 29 -198 135 -204 134 -4 0 -10 4 -13 9 -10 16 -211 119 -323 166 -181
76 -371 131 -553 160 -66 11 -104 17 -141 22 -44 6 -440 14 -446 9z"/>
</g>
</svg>
