<svg width="260" height="259" xmlns="http://www.w3.org/2000/svg">
 <defs>
  <linearGradient y2="1" y1="0.40234" x1="0.46484" id="d">
   <stop offset="0" stop-opacity="0.996" stop-color="#ffaa56"/>
   <stop offset="0.52344" stop-opacity="0.996" stop-color="#7f3f00"/>
   <stop offset="1" stop-opacity="0.996"/>
  </linearGradient>
  <linearGradient y2="1" y1="0.25" x1="0.35547" id="e">
   <stop offset="0" stop-opacity="0.996" stop-color="#ffaa56"/>
   <stop offset="0.52344" stop-opacity="0.996" stop-color="#7f3f00"/>
   <stop offset="1" stop-opacity="0.996"/>
  </linearGradient>
  <linearGradient y2="1" y1="0.23438" x1="0.37109" id="a">
   <stop offset="0" stop-opacity="0.996" stop-color="#ffaa56"/>
   <stop offset="0.44922" stop-opacity="0.996" stop-color="#7f3f00"/>
   <stop offset="0.98828" stop-opacity="0.996"/>
  </linearGradient>
 </defs>
 <g>
  <title>background</title>
  <rect fill="none" id="canvas_background" height="261" width="262" y="-1" x="-1"/>
 </g>
 <g>
  <title>Layer 1</title>
  <g stroke="null" id="svg_1" stroke-width="0" font-family="Arial">
   <g stroke="null" id="svg_2" text-anchor="middle" stroke-linejoin="null" stroke-dasharray="null">
    <ellipse stroke="url(#a)" id="svg_3" ry="124.999998" rx="124.999996" cy="127.500002" cx="128.999996"/>
    <text stroke="#096388" id="svg_4" xml:space="preserve" opacity="0.5" font-size="24" y="215.309017" x="62.023058" transform="matrix(9.749324030043976,0,0,7.152588469879239,-583.7714003352312,-1283.0890018010161) "/>
    <g stroke="url(#a)" id="svg_5">
     <ellipse stroke="null" id="svg_6" fill="#fff" ry="121.253405" rx="120.270267" cy="127.500002" cx="128.999996"/>
     <ellipse stroke="null" id="svg_7" ry="114.441416" rx="113.51351" cy="127.500002" cx="128.999996"/>
    </g>
    <text stroke="#096388" id="svg_8" xml:space="preserve" opacity="0.5" font-size="24" y="20.527116" x="-42.054907" transform="matrix(0.6981080870359301,0,0,0.6662670219637604,62.12722839458023,119.97024597499563) "/>
   </g>
   <g stroke="null" id="svg_9" fill="#fff">
    <path stroke="url(#d)" id="svg_10" stroke-linejoin="round" d="m115.614861,14.376706c9.985135,12.9203 14.559459,27.891008 5.917635,47.558583s-31.417567,50.47207 -49.763512,83.474113c-36.691215,65.997956 42.618918,99.264304 49.160134,99.911443c6.540608,0.643883 -31.887837,-25.218665 -19.725675,-64.495231s40.186485,-61.382833 48.137836,-91.369209c7.951351,-29.983651 -53.697971,-100.919617 -33.727026,-75.074931l0.000608,-0.004768z"/>
    <g stroke="null" id="svg_11" stroke-linejoin="null">
     <path stroke="url(#e)" id="svg_12" d="m160.020266,92.159402c1.990608,4.250204 2.921757,12.019755 0.710541,21.190735c-2.210676,9.1703 -5.309662,15.995231 -12.128378,27.172343c-3.410067,5.588011 -11.101351,16.32425 -15.078378,22.524523c-3.976892,6.20109 -5.221013,7.867847 -11.678378,19.786785c-12.914864,23.837193 13.110135,47.357629 8.191892,39.269754c-4.918108,-8.087193 1.959459,-23.837874 8.856081,-34.400545c6.895946,-10.563351 11.561486,-15.474795 18.289864,-25.679836c6.727905,-10.205041 13.501351,-26.231607 13.552702,-35.102861c0.051243,-8.871934 -0.427101,-11.697548 -3.763311,-21.237057c-3.336892,-9.540872 -10.933783,-22.024523 -6.951351,-13.523842l-0.001284,0z"/>
     <path stroke="url(#a)" id="svg_13" stroke-dasharray="null" d="m143.34459,241.553134c-2.857635,5.545708 -3.673176,-11.675749 1.413513,-26.583787s15.114189,-23.512942 25.697297,-42.123296c5.292094,-9.304496 9.821621,-18.661444 11.654729,-26.997275c1.834122,-8.335831 1.727432,-15.451635 -0.743851,-19.880109c-4.942567,-8.855586 0.172297,-0.752044 2.630743,3.065531s2.535676,4.408651 4.095743,7.207084c1.560676,2.798297 2.587838,5.4047 3.058176,6.800681c0.470345,1.395913 2.088649,4.832289 2.625811,14.636921c0.537189,9.804496 -5.707297,33.242506 -26.616891,54.368528c-20.909459,21.126703 -20.956756,23.959809 -23.814864,29.505449l-0.000405,0.000272z"/>
    </g>
   </g>
  </g>
 </g>
</svg>